<svg id="Layer_1" data-name="Layer 1" xmlns="http://www.w3.org/2000/svg" viewBox="0 0 89.3945 89.5082"><defs><style>.cls-1,.cls-2{fill:none;stroke:#fff;stroke-miterlimit:10;stroke-width:3px;}.cls-2{stroke-linecap:round;}</style></defs><title>Court Times</title><path class="cls-1" d="M52.0105,67.3664c9.527-.634,16.0515-7.187,16.0485-15.7055" transform="translate(-6.2046 -5.5)"/><path class="cls-1" d="M68.3209,43.99a36.83,36.83,0,0,1-.0131,4.3339c-.9878,5.5123.8471,10.3726,5.6513,14.6546,6.2484,5.5692,11.9466,11.7576,17.8535,17.7074,3.063,3.0852,3.0344,4.7142,0,7.8249-6.4965,6.6591-6.537,6.6593-13.1734.0229-5.0351-5.0351-10.37-9.8105-15.0184-15.18-4.4143-5.1-9.7423-6.676-15.993-5.7958-5.834.8215-11.1974-.4825-16.3517-2.9151C19.13,58.91,10.9346,49.7586,8.3,36.4,4.5789,17.5335,18.7765,3.7552,37.6154,7.6669a36.3,36.3,0,0,1,11.1959,4.3894" transform="translate(-6.2046 -5.5)"/><line class="cls-1" x1="70.6615" y1="81.42" x2="81.0707" y2="70.53"/><polyline class="cls-2" points="43.232 26.014 47.342 30.016 61.695 15.494"/><path class="cls-1" d="M77.3036,28.2548A18.6358,18.6358,0,1,1,58.6678,9.6191,18.6393,18.6393,0,0,1,77.3036,28.2548Z" transform="translate(-6.2046 -5.5)"/></svg>