<svg xmlns="http://www.w3.org/2000/svg" width="47.732" height="47.93" viewBox="0 0 47.732 47.93">
  <g id="Court" transform="translate(-5253.963 -10581.477)">
    <g id="Court_Times" transform="translate(5255 10582.518)">
      <path id="Path_8002" data-name="Path 8002" d="M52.011,59.992c5.054-.336,8.515-3.812,8.513-8.331" transform="translate(-28.508 -27.97)" fill="none" stroke="#fff" stroke-miterlimit="10" stroke-width="2"/>
      <path id="Path_8003" data-name="Path 8003" d="M39.859,26.622a19.537,19.537,0,0,1-.007,2.3c-.524,2.924.449,5.5,3,7.774,3.315,2.954,6.337,6.237,9.471,9.393,1.625,1.637,1.61,2.5,0,4.151-3.446,3.532-3.468,3.532-6.988.012-2.671-2.671-5.5-5.2-7.967-8.052a8.809,8.809,0,0,0-8.484-3.074,15.01,15.01,0,0,1-8.674-1.546C13.765,34.536,9.418,29.682,8.02,22.6,6.047,12.588,13.578,5.279,23.571,7.354A19.256,19.256,0,0,1,29.51,9.682" transform="translate(-7.705 -7)" fill="none" stroke="#fff" stroke-miterlimit="10" stroke-width="2"/>
      <line id="Line_324" data-name="Line 324" y1="5.777" x2="5.522" transform="translate(36.687 36.618)" fill="none" stroke="#fff" stroke-miterlimit="10" stroke-width="2"/>
      <path id="Path_8004" data-name="Path 8004" d="M43.232,21.074l2.18,2.123,7.614-7.7" transform="translate(-21.095 -8.071)" fill="none" stroke="#fff" stroke-linecap="round" stroke-miterlimit="10" stroke-width="2"/>
      <path id="Path_8005" data-name="Path 8005" d="M59.8,19.5a9.886,9.886,0,1,1-9.886-9.885A9.886,9.886,0,0,1,59.8,19.5Z" transform="translate(-22.884 -8.23)" fill="none" stroke="#fff" stroke-miterlimit="10" stroke-width="2"/>
    </g>
  </g>
</svg>
