<svg id="Layer_1" data-name="Layer 1" xmlns="http://www.w3.org/2000/svg" viewBox="0 0 94.5303 88.888"><defs><style>.cls-1,.cls-2{fill:none;stroke:#fff;stroke-miterlimit:10;stroke-width:3px;}.cls-2{stroke-linecap:round;}</style></defs><title>Calendar of events</title><path class="cls-1" d="M75.2109,12.6993c2.2794,0,6.8009-.03,8.8854.0054,7.513.1275,11.8739,4.4939,11.8839,11.9968q.0381,28.311-.0018,56.6221c-.0117,7.3793-4.3176,11.7384-11.7349,11.7543q-33.9427.0728-67.8857.0031c-7.6141-.014-11.86-4.3217-11.8692-11.9218q-.0355-28.311.0019-56.6222c.0114-7.3093,4.3914-11.6832,11.7347-11.83,2.1019-.0421,6.6413-.0064,9.0409-.0064Z" transform="translate(-2.9697 -5.7253)"/><line class="cls-1" x1="1.2536" y1="27.9494" x2="92.7748" y2="27.9494"/><polyline class="cls-2" points="31.696 57.439 42.743 68.486 66.585 47.174"/><line class="cls-2" x1="26.8611" y1="1.5" x2="26.8611" y2="11.6513"/><line class="cls-2" x1="67.6693" y1="1.5" x2="67.6693" y2="11.6513"/></svg>