<svg id="Layer_1" data-name="Layer 1" xmlns="http://www.w3.org/2000/svg" viewBox="0 0 81.0008 91.9719"><defs><style>.cls-1{fill:none;stroke:#fff;stroke-miterlimit:10;stroke-width:3px;}</style></defs><title>Tee Times</title><path class="cls-1" d="M49.185,65.8234c-1.0893-.1489-3.59-.48-4.399-.6784a17.21,17.21,0,0,1-11.1188-8.0892c-3.5718-5.9987-7.019-12.0718-10.498-18.1254-.3054-.5315-.77-1.2595-.619-1.717.7642-2.3116-.7072-3.8664-1.691-5.5813C16.8016,24.5589,12.72,17.4993,8.5469,10.26l5.5508-3.21c.4957.7871.9625,1.4779,1.3789,2.1977C19.523,16.2418,23.5317,23.2582,27.64,30.2161c.4965.8411,1.537,1.3511,2.2865,2.0559a10.2435,10.2435,0,0,1,1.8809,1.9771c2.023,3.36,3.9443,6.7809,5.9184,10.17,1.9673,3.3777,3.7009,4.0829,7.4126,2.9772q13.5228-4.0286,27.0372-8.0856c4.6226-1.3781,8.1071-.2555,10.8456,3.7646A16.4529,16.4529,0,0,1,84.4885,59.45c-1.8912,4.5027-5.6427,6.8066-10.6056,6.8838-2.3835.037-4.4249.0083-4.4249.0083M64.0754,76.409c.7258.7816,1.8215.65,2.0469,1.5325.3559,1.3929.4764,2.9553-1.34,3.9112-.5873.309-.796,1.551-.963,2.4081-.7287,3.738-1.3783,7.4914-2.0567,11.2392h-4.74c-.7809-3.9858-1.5384-7.9764-2.3663-11.9524-.1341-.6438-.4246-1.5267-.911-1.7762-1.7167-.8806-1.6483-2.4195-1.294-3.75.24-.9019,1.32-.7888,2.0906-1.64M59.558,56.9475a10.1366,10.1366,0,1,0,9.9141,10.4336A10.172,10.172,0,0,0,59.558,56.9475ZM22.585,34.8043l5.39-4.1424" transform="translate(-6.4992 -5.0281)"/></svg>