<svg xmlns="http://www.w3.org/2000/svg" width="47.931" height="46.511" viewBox="0 0 47.931 46.511">
  <g id="Wellness" transform="translate(-5446.154 -10579.092)">
    <g id="Group_2388" transform="translate(-2190.884 6371.912)">
      <path id="Path_664" d="M7644.046,4302.4c-1.159.543-2.354,1.015-3.477,1.63a4.946,4.946,0,0,0-2.5,2.571,2.16,2.16,0,0,0,.4,2.354,9.247,9.247,0,0,0,5.106,3.079,23.846,23.846,0,0,0,9.706.941c1.34-.181,2.716-.326,4.092-.435a14.132,14.132,0,0,1,2.463.435,35.676,35.676,0,0,0,6.229,0c1.521-.109,2.97-.4,4.453-.543a4,4,0,0,0,3.224-2.607" transform="translate(0 -60.231)" fill="none" stroke="#fff" stroke-linecap="round" stroke-linejoin="round" stroke-width="1.6"/>
      <path id="Path_665" d="M7702.282,4218.666c3-1.919,2.933-4.853,1.339-7.57a6.655,6.655,0,0,0-3.946-3.041c-.688-.181-1.015-.108-1.015.652a1.231,1.231,0,0,0,0,.507,4.664,4.664,0,0,1-1.593,5.142,2.591,2.591,0,0,0,.688,3.658c.108.072.18.108.289.182.289.144.8.18.761.724" transform="translate(-37.448 0)" fill="none" stroke="#fff" stroke-linecap="round" stroke-linejoin="round" stroke-width="1.6"/>
      <path id="Path_666" d="M7680.3,4249.757a19.513,19.513,0,0,1,.507-4.346,3.9,3.9,0,0,1,3.585-2.9c3.042-.326,6.048-.181,9.091-.217a26.644,26.644,0,0,1,2.969.289,3.9,3.9,0,0,1,3.006,3.3,41.806,41.806,0,0,1,.47,7.968,1.437,1.437,0,0,0,.726,1.52,5.661,5.661,0,0,1,2.571,4.926,3.528,3.528,0,0,0,.181,1.376" transform="translate(-27.055 -21.893)" fill="none" stroke="#fff" stroke-linecap="round" stroke-linejoin="round" stroke-width="1.6"/>
      <path id="Path_667-2" d="M7649.5,4280.7a29.664,29.664,0,0,0-3.368,1.738c-1.848,1.376-1.956,2.97-.218,4.347a8.7,8.7,0,0,0,4.31,1.955,40.553,40.553,0,0,0,10.467-.036,3.5,3.5,0,0,1,2.354.181,15.728,15.728,0,0,1,4.092,2.136,3.039,3.039,0,0,1,.906,4.2,3.21,3.21,0,0,1-.761.8,10.052,10.052,0,0,1-3.875,2.064,2.234,2.234,0,0,0-.615.4" transform="translate(-4.335 -46.39)" fill="none" stroke="#fff" stroke-linecap="round" stroke-linejoin="round" stroke-width="1.6"/>
      <path id="Path_668-2" d="M7665.978,4269.554c.146-.688.87-.688,1.268-1.086,1.2-1.123,1.269-2.246-.036-3.26a9.528,9.528,0,0,0-5.468-1.739,17.281,17.281,0,0,0-6.084.507,8.368,8.368,0,0,0-2.717,1.376,1.806,1.806,0,0,0-.435,2.535,2.513,2.513,0,0,0,.29.327,5.92,5.92,0,0,0,3.476,1.737,17.512,17.512,0,0,0,8.438-.253c.979-.327,4.672,1.485,5.468,2.391a2.386,2.386,0,0,1,0,3.223,7.851,7.851,0,0,1-2.86,1.992" transform="translate(-9.111 -35.352)" fill="none" stroke="#fff" stroke-linecap="round" stroke-linejoin="round" stroke-width="1.6"/>
      <path id="Path_669-2" d="M7737.152,4310.892c.037.941-.289,2.136.146,2.824a4.717,4.717,0,0,0,3.586,2.68,18.135,18.135,0,0,1,2.427.507c1.267-2.282-.942-6.917-3.912-8" transform="translate(-63.265 -64.377)" fill="none" stroke="#fff" stroke-linecap="round" stroke-linejoin="round" stroke-width="1.6"/>
      <path id="Path_670-3" d="M7754.275,4295.8a12.313,12.313,0,0,0-1.485,2.5c-.869,1.52-1.81,2.86-3.876,2.751a1.49,1.49,0,0,0-.614.253" transform="translate(-70.429 -56.022)" fill="none" stroke="#fff" stroke-linecap="round" stroke-linejoin="round" stroke-width="1.6"/>
      <path id="Path_671" d="M7749.03,4294.567a27.148,27.148,0,0,0-4.092-1.05,3.417,3.417,0,0,0-3.369,1.413l-.868,1.123" transform="translate(-65.582 -54.535)" fill="none" stroke="#fff" stroke-linecap="round" stroke-linejoin="round" stroke-width="1.6"/>
      <path id="Path_672-2" d="M7716.368,4297.377c-.905-.87-1.63-1.956-3.115-1.883a10.658,10.658,0,0,0-4.853,2.245" transform="translate(-44.978 -55.824)" fill="none" stroke="#fff" stroke-linecap="round" stroke-linejoin="round" stroke-width="1.6"/>
      <path id="Path_673-2" d="M7706.4,4301.3c.471-.037,1.919,1.774,2.354,2.353,1.812,2.427,3.586,2.753,6.084,1.124" transform="translate(-43.703 -59.529)" fill="none" stroke="#fff" stroke-linecap="round" stroke-linejoin="round" stroke-width="1.6"/>
      <path id="Path_674-2" d="M7720.869,4314.4a7.5,7.5,0,0,0-1.918,3.477,10.5,10.5,0,0,0,.146,2.607" transform="translate(-51.691 -67.886)" fill="none" stroke="#fff" stroke-linecap="round" stroke-linejoin="round" stroke-width="1.6"/>
      <path id="Path_675-2" d="M7729.221,4278c-.035.507-.469.8-.76,1.086a6.845,6.845,0,0,0-2.463,5.36" transform="translate(-56.203 -44.668)" fill="none" stroke="#fff" stroke-linecap="round" stroke-linejoin="round" stroke-width="1.6"/>
      <path id="Path_676-2" d="M7707.049,4232.7a19,19,0,0,0,.108,3.223" transform="translate(-44.098 -15.773)" fill="none" stroke="#fff" stroke-linecap="round" stroke-linejoin="round" stroke-width="1.6"/>
    </g>
  </g>
</svg>
