<svg xmlns="http://www.w3.org/2000/svg" width="48.76" height="36.979" viewBox="0 0 48.76 36.979">
  <g id="Dining" transform="translate(-5063.001 -10583.236)">
    <g id="Dashboard_diningReservation" transform="translate(5064 10584.449)">
      <path id="Path_8014" data-name="Path 8014" d="M56.041,39.669c5.718.694,11.975,6.372,13.249,11.8" transform="translate(-29.64 -28.186)" fill="none" stroke="#fff" stroke-linecap="round" stroke-miterlimit="10" stroke-width="2"/>
      <path id="Path_8015" data-name="Path 8015" d="M56.536,47.738c3.674.446,7.7,4.1,8.514,7.584" transform="translate(-29.876 -32.037)" fill="none" stroke="#fff" stroke-linecap="round" stroke-miterlimit="10" stroke-width="2"/>
      <path id="Path_8016" data-name="Path 8016" d="M6.951,46.6c-.124-12.928,8.916-21.977,20-23.1a13.329,13.329,0,0,1-.948-3.129,3.044,3.044,0,0,1,1.068-1.954,2.843,2.843,0,0,1,3.959.174c1.332,1.306,1.2,2.807-.448,4.914a21.877,21.877,0,0,1,14.759,7.412A21.649,21.649,0,0,1,50.8,46.551c1.383-.023,1.55.774,1.475,1.828a26.259,26.259,0,0,0-.007,2.917c.036.892-.346,1.168-1.218,1.167q-22.107-.029-44.214,0c-.943,0-1.338-.309-1.3-1.257.042-.971.052-1.948,0-2.917C5.48,47.281,5.676,46.536,6.951,46.6Z" transform="translate(-5.529 -17.698)" fill="none" stroke="#fff" stroke-miterlimit="10" stroke-width="2"/>
    </g>
  </g>
</svg>
