<svg id="Layer_1" data-name="Layer 1" xmlns="http://www.w3.org/2000/svg" viewBox="0 0 95.4095 58.4448"><defs><style>.cls-1,.cls-2{fill:none;stroke:#fff;stroke-miterlimit:10;stroke-width:3px;}.cls-2{stroke-linecap:round;}</style></defs><title>Request Guest Card</title><path class="cls-1" d="M50.3256,24.0024q18.8619,0,37.7237.0019c5.761.0028,8.4752,2.7129,8.4785,8.4708q.0106,19.2467,0,38.4935c-.0033,5.75-2.7263,8.4711-8.4827,8.4723q-37.7237.0076-75.4473,0c-5.7595-.0012-8.4659-2.7135-8.4687-8.4766q-.0093-19.375.0017-38.75c.0045-5.418,2.7921-8.2035,8.2146-8.2082Q31.3356,23.99,50.3256,24.0024Z" transform="translate(-2.6236 -22.5)"/><path class="cls-1" d="M28.7606,66.0953c-4.0941,0-8.189-.0437-12.2821.0224-1.54.0249-2.095-.5327-2.1151-2.0857a8.1513,8.1513,0,0,1,3.1911-6.66c5.7443-4.81,16.7144-4.8062,22.43.0076a8.19,8.19,0,0,1,3.19,6.6639c-.0189,1.5663-.6061,2.0976-2.1316,2.0738C36.95,66.0533,32.8548,66.0953,28.7606,66.0953Z" transform="translate(-2.6236 -22.5)"/><path class="cls-1" d="M34.9187,43.5427a6.1519,6.1519,0,1,1-6.18-6.1853A6.2229,6.2229,0,0,1,34.9187,43.5427Z" transform="translate(-2.6236 -22.5)"/><line class="cls-2" x1="50.4436" y1="17.9205" x2="81.7574" y2="17.9205"/><line class="cls-2" x1="50.4436" y1="29.2131" x2="81.7574" y2="29.2131"/><line class="cls-2" x1="50.4436" y1="40.5058" x2="81.7574" y2="40.5058"/></svg>