<svg id="Layer_1" data-name="Layer 1" xmlns="http://www.w3.org/2000/svg" viewBox="0 0 92.4712 69.5209"><defs><style>.cls-1,.cls-2{fill:none;stroke:#fff;stroke-miterlimit:10;stroke-width:3px;}.cls-1{stroke-linecap:round;}</style></defs><title>Dining Reservations</title><path class="cls-1" d="M56.0408,39.6692c10.94,1.3277,22.9118,12.1919,25.3485,22.5786" transform="translate(-4.0288 -16.1924)"/><path class="cls-1" d="M56.5357,47.7379c7.03.8533,14.724,7.835,16.29,14.51" transform="translate(-4.0288 -16.1924)"/><path class="cls-2" d="M8.25,73.0018C8.012,48.2673,25.3093,30.9544,46.52,28.7993c-.6359-1.9413-1.68-3.9342-1.8131-5.9862-.0788-1.2158,1.0379-2.7789,2.0435-3.7394a5.44,5.44,0,0,1,7.5736.3327c2.548,2.498,2.3039,5.37-.8578,9.401,11.248,1.1326,20.7667,5.7051,28.2374,14.18S92.5446,61.4776,92.1494,72.9c2.6454-.0437,2.9651,1.4813,2.8224,3.4966a50.2394,50.2394,0,0,0-.0137,5.5809c.0694,1.7059-.6622,2.2354-2.33,2.2332q-42.2958-.0551-84.5916.0031c-1.8036.0026-2.56-.5918-2.4828-2.405.0794-1.8577.0989-3.7264-.0075-5.5815C5.4351,74.2964,5.81,72.8719,8.25,73.0018Z" transform="translate(-4.0288 -16.1924)"/></svg>