<svg xmlns="http://www.w3.org/2000/svg" width="32.588" height="35.835" viewBox="0 0 32.588 35.835">
  <g id="My_Statements" data-name="My Statements" transform="translate(-4688 -10588.082)">
    <g id="Dashboard_Mystatement" transform="translate(4689 10589.082)">
      <path id="Path_8013" data-name="Path 8013" d="M37.568,10.078H17.785c-2.971,0-5.4,2.689-5.4,5.976V37.937c0,3.287,2.431,5.976,5.4,5.976H37.568c2.971,0,5.4-2.689,5.4-5.976V16.054C42.97,12.767,40.539,10.078,37.568,10.078Z" transform="translate(-12.382 -10.078)" fill="none" stroke="#fff" stroke-miterlimit="10" stroke-width="2"/>
      <rect id="Rectangle_7273" data-name="Rectangle 7273" width="2.044" height="1.496" transform="translate(6.328 22.98)" fill="#fff"/>
      <rect id="Rectangle_7274" data-name="Rectangle 7274" width="13.131" height="1.496" transform="translate(11.129 22.98)" fill="#fff"/>
      <rect id="Rectangle_7275" data-name="Rectangle 7275" width="2.044" height="1.496" transform="translate(6.328 16.17)" fill="#fff"/>
      <rect id="Rectangle_7276" data-name="Rectangle 7276" width="13.131" height="1.496" transform="translate(11.129 16.17)" fill="#fff"/>
      <rect id="Rectangle_7277" data-name="Rectangle 7277" width="2.044" height="1.496" transform="translate(6.328 9.36)" fill="#fff"/>
      <rect id="Rectangle_7278" data-name="Rectangle 7278" width="13.131" height="1.496" transform="translate(11.129 9.36)" fill="#fff"/>
    </g>
  </g>
</svg>
