<svg xmlns="http://www.w3.org/2000/svg" width="40.204" height="45.45" viewBox="0 0 40.204 45.45">
  <g id="Tee_Times" data-name="Tee Times" transform="translate(-4875.135 -10583.102)">
    <path id="Dashboard_BookTeeTime" d="M28.35,35.69c-.531-.073-1.749-.234-2.144-.331a8.386,8.386,0,0,1-5.418-3.942c-1.741-2.923-3.42-5.883-5.116-8.833-.149-.259-.375-.614-.3-.837.372-1.126-.345-1.884-.824-2.72-1.977-3.447-3.966-6.887-6-10.415l2.7-1.564c.242.384.469.72.672,1.071,1.972,3.408,3.925,6.827,5.927,10.218.242.41.749.658,1.114,1a4.992,4.992,0,0,1,.917.963c.986,1.637,1.922,3.3,2.884,4.956s1.8,1.99,3.612,1.451q6.59-1.963,13.175-3.94a4.267,4.267,0,0,1,5.285,1.835,8.018,8.018,0,0,1,.715,7.979,5.314,5.314,0,0,1-5.168,3.354c-1.161.018-2.156,0-2.156,0m-2.623,4.906c.354.381.888.317,1,.747a1.462,1.462,0,0,1-.653,1.906c-.286.151-.388.756-.469,1.173-.355,1.822-.672,3.651-1,5.477h-2.31c-.381-1.942-.75-3.887-1.153-5.824-.065-.314-.207-.744-.444-.866a1.4,1.4,0,0,1-.631-1.827c.117-.439.643-.384,1.019-.8m2.444-9.47a4.957,4.957,0,1,0,3.469,1.541A4.94,4.94,0,0,0,33.4,31.365ZM15.388,20.575l2.627-2.019" transform="translate(4867.953 10577.399)" fill="none" stroke="#fff" stroke-miterlimit="10" stroke-width="2"/>
  </g>
</svg>
