<svg xmlns="http://www.w3.org/2000/svg" width="47.555" height="47.164" viewBox="0 0 47.555 47.164">
  <g id="Listening" transform="translate(-5639.209 -10582.421)">
    <g id="Group_10896" data-name="Group 10896" transform="translate(4232.516 10260.604)">
      <path id="Path_8019" data-name="Path 8019" d="M2.671,39.365a8.131,8.131,0,0,0,.185,2.91A6.5,6.5,0,0,0,8.321,47a7.316,7.316,0,0,0,7.712-3.13,10.645,10.645,0,0,0,1.5-3.678c.3-1.207.561-2.424.876-3.629a13.1,13.1,0,0,1,3.162-5.406,30.678,30.678,0,0,0,2.915-3.5,18.1,18.1,0,0,0,2.5-6.358,18.183,18.183,0,0,0,.329-5.229,15.949,15.949,0,0,0-4.5-10.4,12.466,12.466,0,0,0-6.594-3.5,10.186,10.186,0,0,0-7.126,1.3,14.873,14.873,0,0,0-6.83,9.09,5.39,5.39,0,0,0-.245,2.018" transform="translate(1405.692 320.818)" fill="none" stroke="#fff" stroke-linecap="round" stroke-linejoin="round" stroke-width="2"/>
      <path id="Path_8020" data-name="Path 8020" d="M53.332,74.479a1.4,1.4,0,0,1,.183-.948,13.261,13.261,0,0,0,1.526-6.717,8.611,8.611,0,0,0-5.579-8.063,6.167,6.167,0,0,0-4.507.1,2.683,2.683,0,0,0-1.6,1.483.537.537,0,0,1-.361.358,3.194,3.194,0,0,0-1.849,1.717,10.846,10.846,0,0,0-1.353,6.539A4.382,4.382,0,0,0,41.9,72.368a2.854,2.854,0,0,1,1.152,3.657,2.512,2.512,0,0,1-1.672,1.535,3.582,3.582,0,0,0,.239,6.731,3.551,3.551,0,0,0,3.682-1.971c.146-.277.038-.592.063-.889" transform="translate(1372.977 271.145)" fill="none" stroke="#fff" stroke-linecap="round" stroke-linejoin="round" stroke-width="2"/>
      <path id="Path_8021" data-name="Path 8021" d="M341.629,20.89A20.477,20.477,0,0,1,346.5,31.051a20.685,20.685,0,0,1-1.345,11.833,22.47,22.47,0,0,1-2.871,4.865" transform="translate(1106.429 304.174)" fill="none" stroke="#fff" stroke-linecap="round" stroke-linejoin="round" stroke-width="2"/>
      <path id="Path_8022" data-name="Path 8022" d="M308.9,63.555a14.666,14.666,0,0,1,2.87,9.19,14.4,14.4,0,0,1-2.6,7.906" transform="translate(1135.271 266.58)" fill="none" stroke="#fff" stroke-linecap="round" stroke-linejoin="round" stroke-width="2"/>
      <path id="Path_8023" data-name="Path 8023" d="M267.568,101.424a7.964,7.964,0,0,1,.3,7.958" transform="translate(1171.688 233.211)" fill="none" stroke="#fff" stroke-linecap="round" stroke-linejoin="round" stroke-width="2"/>
      <path id="Path_8024" data-name="Path 8024" d="M74.139,77.382a5.31,5.31,0,0,0,1.839.843,3.674,3.674,0,0,1,2.333,1.645,1.052,1.052,0,0,1,.106.483" transform="translate(1342.128 254.396)" fill="none" stroke="#fff" stroke-linecap="round" stroke-linejoin="round" stroke-width="2"/>
    </g>
  </g>
</svg>
