<svg id="Layer_1" data-name="Layer 1" xmlns="http://www.w3.org/2000/svg" viewBox="0 0 94.9632 66.6856"><defs><style>.cls-1,.cls-2{fill:none;stroke:#fff;stroke-miterlimit:10;stroke-width:3px;}.cls-2{stroke-linecap:round;}</style></defs><title>Member Directory</title><path class="cls-1" d="M35.9183,83.4435c-9.0657,0-18.1329-.0967-27.1962.05-3.41.0551-4.639-1.18-4.6835-4.6183-.08-6.1864,2.48-10.9076,7.0661-14.748,12.7194-10.65,37.0106-10.6422,49.667.0168,4.5717,3.85,7.1374,8.5716,7.0628,14.7559-.0418,3.4683-1.3421,4.6446-4.72,4.592C54.0511,83.3505,44.984,83.4435,35.9183,83.4435Z" transform="translate(-2.5368 -18.3094)"/><path class="cls-1" d="M49.554,33.5054A13.6222,13.6222,0,1,1,35.8688,19.81,13.78,13.78,0,0,1,49.554,33.5054Z" transform="translate(-2.5368 -18.3094)"/><line class="cls-2" x1="58.212" y1="4.2885" x2="93.4632" y2="4.2885"/><line class="cls-2" x1="63.0437" y1="21.0618" x2="93.4632" y2="21.0618"/><line class="cls-2" x1="71.4193" y1="37.835" x2="93.4632" y2="37.835"/></svg>