<svg id="Layer_1" data-name="Layer 1" xmlns="http://www.w3.org/2000/svg" viewBox="0 0 70.6794 88.1341"><defs><style>.cls-1{fill:none;stroke:#fff;stroke-linecap:round;stroke-miterlimit:10;stroke-width:3px;}</style></defs><title>Important Numbers</title><path class="cls-1" d="M57.7326,93.2737c-13.6466-3.7947-21.9052-13.7144-28.47-25.38-5.8244-10.35-10.487-21.1771-11.735-33.1726a31.2761,31.2761,0,0,1,1.8556-15.024,14.07,14.07,0,0,1,8.5477-8.5911c2.13-.7593,4.2114-1.6552,6.3293-2.45,3.0516-1.1459,5.032-.4017,6.5074,2.4333q3.87,7.4356,7.7116,14.8856c1.2658,2.4582.6223,4.3882-1.94,5.4674-2.8007,1.18-5.6454,2.2607-8.5,3.3045-1.8917.6916-2.7887,1.9827-2.3966,3.92A49.9385,49.9385,0,0,0,37.32,45.0051C39.8433,52.3368,43.07,59.3239,48.06,65.35c4.3138,5.2084,5.0431,5.2777,10.55,1.4916,1.1666-.8021,2.292-1.6656,3.4754-2.4413,2.4152-1.5832,4.56-1.0246,5.747,1.5719q3.4849,7.6208,6.85,15.2959c1.0647,2.4233.4527,4.3582-1.8271,5.8546-3.1757,2.0846-6.3943,4.104-9.5945,6.1513Z" transform="translate(-15.8206 -6.6396)"/><path class="cls-1" d="M65.5994,20.0031a23.0032,23.0032,0,0,1,5.2292,2.4625c11.1494,6.6451,16.6821,20.338,13.0749,32.2037" transform="translate(-15.8206 -6.6396)"/><path class="cls-1" d="M57.511,29.6964c9.4871,3.3916,15.21,14.4215,12.3012,24.85" transform="translate(-15.8206 -6.6396)"/></svg>